HIERARCHY
ROOT Hips
{
	OFFSET 0.000000 0.000000 0.000000 
	CHANNELS 6 Xposition Yposition Zposition Yrotation Zrotation Xrotation 
	JOINT Lumbar
	{
		OFFSET 0.000000 0.000000 0.000000 
		CHANNELS 3 Zrotation Xrotation Yrotation
		JOINT Neck
		{
			OFFSET 0.000000 0.445665 0.000000 
			CHANNELS 3 Zrotation Xrotation Yrotation
			End Site
			{
				OFFSET 0.000000 0.227535 0.000000 
			}
		}
		JOINT RightShoulder
		{
			OFFSET 0.019635 0.377685 0.194865 
			CHANNELS 3 Zrotation Xrotation Yrotation
			JOINT RightElbow
			{
				OFFSET 0.000000 -0.243375 0.000000 
				CHANNELS 2 Zrotation Yrotation
				JOINT RightWrist
				{
					OFFSET 0.000000 -0.264825 0.000000 
					CHANNELS 2 Zrotation Xrotation
					End Site
					{
						OFFSET 0.006600 -0.176220 0.000990 
					}
				}
			}
		}
		JOINT LeftShoulder
		{
			OFFSET 0.019635 0.377685 -0.194865 
			CHANNELS 3 Zrotation Xrotation Yrotation
			JOINT LeftElbow
			{
				OFFSET 0.000000 -0.243375 0.000000 
				CHANNELS 2 Zrotation Yrotation
				JOINT LeftWrist
				{
					OFFSET 0.000000 -0.264825 0.000000 
					CHANNELS 2 Zrotation Xrotation
					End Site
					{
						OFFSET 0.006600 -0.176220 -0.000990 
					}
				}
			}
		}
	}
	JOINT RightHip
	{
		OFFSET 0.052140 -0.069960 0.075570 
		CHANNELS 3 Zrotation Xrotation Yrotation
		JOINT RightKnee
		{
			OFFSET 0.000000 -0.402270 0.000000 
			CHANNELS 1 Zrotation
			JOINT RightAnkle
			{
				OFFSET 0.000000 -0.404085 0.000000 
				CHANNELS 3 Zrotation Xrotation Yrotation
				End Site
				{
					OFFSET 0.204105 -0.089430 0.008415 
				}
			}
		}
	}
	JOINT LeftHip
	{
		OFFSET 0.052140 -0.069960 -0.075570 
		CHANNELS 3 Zrotation Xrotation Yrotation
		JOINT LeftKnee
		{
			OFFSET 0.000000 -0.402270 0.000000 
			CHANNELS 1 Zrotation
			JOINT LeftAnkle
			{
				OFFSET 0.000000 -0.404085 0.000000 
				CHANNELS 3 Zrotation Xrotation Yrotation
				End Site
				{
					OFFSET 0.204105 -0.089430 -0.008415 
				}
			}
		}
	}
}
MOTION
Frames: 30
Frame Time: 0.02
-0.44715 -0.45885 0.20897 24.05642 17.65578 -7.14909 17.14626 10.33478 -9.94733 -14.60761 -27.43365 -0.8277 37.72788 11.40148 64.1711 91.33754 70.20199 55.98709 -5.35444 4.53605 10.17005 -63.86186 105.57215 -73.99151 48.36456 4.78926 75.09307 1.58283 -20.99391 -75.22478 -15.18375 -1.03079 -1.42901 76.22737 1.2376 15.64699 -59.84318 -20.23016 0.12048 1.06887
-0.44598 -0.45761 0.20842 23.83598 17.13466 -7.08558 17.05558 10.3544 -9.70708 -14.00842 -27.01045 -0.82771 38.60885 11.40232 64.17157 90.98282 68.62514 53.9907 -5.38367 4.60725 10.55902 -63.71111 105.13739 -74.20291 47.86452 4.73962 75.42498 1.56227 -21.05012 -75.95269 -14.82639 -1.01108 -1.40357 76.38984 1.49366 15.93702 -60.61454 -20.20826 0.12068 1.06794
-0.44475 -0.45635 0.20799 23.55844 16.60361 -6.99243 16.94178 10.3878 -9.49496 -13.4318 -26.72126 -0.82771 39.33479 11.40172 64.17103 90.2518 66.70932 51.79962 -5.37283 4.57993 10.96103 -63.4451 104.52563 -74.04069 46.88779 4.68608 75.83218 1.56028 -21.11529 -76.82764 -14.43115 -0.99231 -1.37724 76.52456 1.77398 16.15775 -61.23165 -20.14729 0.16337 1.09182
-0.44354 -0.4551 0.20749 23.30983 16.07991 -6.91167 16.83438 10.41214 -9.27156 -12.84956 -26.36727 -0.82771 40.12028 11.40025 64.17076 89.65942 64.90764 49.69281 -5.3967 4.59027 11.34567 -63.2112 103.95366 -74.05366 46.09308 4.63675 76.20113 1.54885 -21.17644 -77.61494 -14.06166 -0.97461 -1.35256 76.66877 2.04015 16.41173 -61.90552 -20.10031 0.18552 1.10351
-0.44234 -0.45382 0.20705 23.04821 15.54181 -6.83465 16.7468 10.44776 -9.03999 -12.24729 -26.02419 -0.82771 40.95097 11.40642 64.17346 89.21217 63.27008 47.59513 -5.35264 4.62494 11.77452 -63.0616 103.55289 -74.05982 45.45029 4.57658 76.58817 1.54188 -21.23637 -78.49174 -13.6546 -0.95178 -1.32325 76.82501 2.32112 16.66118 -62.6313 -20.06837 0.2139 1.11963
-0.4411 -0.45261 0.20652 22.80035 15.03447 -6.74342 16.60846 10.46263 -8.83219 -11.69234 -25.68965 -0.82771 41.65033 11.39483 64.16704 88.36622 61.21889 45.43823 -5.43938 4.59361 12.11704 -62.71209 102.75179 -73.98614 44.378 4.5382 76.95257 1.52983 -21.30207 -79.21706 -13.31664 -0.93952 -1.30316 76.94897 2.57636 16.90189 -63.21465 -19.99624 0.23923 1.13235
-0.43976 -0.45159 0.20569 22.60401 14.58641 -6.61647 16.37434 10.42615 -8.69128 -11.26199 -25.38069 -0.82772 42.03216 11.34795 64.15762 86.55549 58.02081 43.13245 -5.90336 4.33199 12.20392 -61.80826 100.90845 -73.76754 42.20763 4.56285 77.26746 1.50047 -21.37189 -79.48002 -13.18813 -0.95484 -1.30832 77.00439 2.75515 17.1433 -63.43401 -19.82135 0.24283 1.12759
-0.43838 -0.45065 0.20477 22.4238 14.17412 -6.47707 16.08381 10.36699 -8.57246 -10.87879 -25.07145 -0.82772 42.28533 11.28114 64.13418 84.34622 54.43385 40.7812 -6.49906 4.021 12.20606 -60.71359 98.66317 -73.47836 39.6262 4.60999 77.55221 1.46515 -21.44861 -79.58653 -13.12904 -0.98085 -1.32276 77.0265 2.90694 17.37673 -63.51718 -19.60745 0.24221 1.11879
-0.43702 -0.44969 0.2039 22.23638 13.76483 -6.3458 15.79262 10.312 -8.4382 -10.47419 -24.73949 -0.82773 42.59382 11.21414 64.10379 82.29173 51.08207 38.4726 -7.03015 3.7794 12.25715 -59.72494 96.59151 -73.23415 37.2499 4.64474 77.82933 1.43161 -21.52899 -79.76976 -13.03238 -1.00271 -1.33311 77.05454 3.07043 17.60811 -63.66916 -19.41277 0.24526 1.11312
-0.43566 -0.44868 0.203 22.0458 13.27703 -6.20277 15.60767 10.28244 -8.32647 -10.06958 -24.50438 -0.82773 42.91314 11.1845 64.13286 80.34133 47.47234 36.06238 -7.5798 3.33482 12.26633 -58.64717 94.55923 -72.93787 34.77749 4.68558 78.19559 1.40237 -21.58264 -79.93486 -12.95985 -1.02166 -1.34289 77.1185 3.23697 17.86028 -63.78771 -19.21157 0.24254 1.10299
-0.43428 -0.44778 0.20215 21.86718 12.95747 -6.08205 15.19332 10.19552 -8.17419 -9.67677 -24.07094 -0.82774 43.17767 11.07438 64.03073 78.07693 44.31121 33.85798 -8.12275 3.30422 12.3403 -57.71582 92.34249 -72.71914 32.41669 4.72281 78.37246 1.36284 -21.69142 -80.09813 -12.85397 -1.04915 -1.35607 77.10256 3.39069 18.06917 -63.94405 -19.01377 0.25012 1.10069
-0.43283 -0.44722 0.20148 21.71111 13.12771 -6.02284 14.11625 9.94556 -7.89152 -9.29716 -23.04456 -0.82783 43.35445 10.72844 63.6035 75.11087 42.49566 32.21259 -8.61345 4.41477 12.6331 -57.19631 89.79641 -72.89497 30.44196 4.71379 77.99533 1.29329 -21.96889 -80.29807 -12.64039 -1.09785 -1.3765 76.85344 3.51264 18.15128 -64.25197 -18.84758 0.28845 1.12271
-0.43137 -0.44678 0.20086 21.568 13.45992 -5.9872 12.8181 9.6404 -7.56934 -8.92903 -21.82611 -0.82793 43.47518 10.30514 63.03809 71.83397 41.14702 30.77988 -9.09321 5.94608 12.99039 -56.83847 87.06541 -73.12263 28.60041 4.70651 77.43533 1.21397 -22.2984 -80.50016 -12.391 -1.15475 -1.40003 76.52924 3.62273 18.19177 -64.60094 -18.68425 0.33694 1.1524
-0.42993 -0.44627 0.20023 21.42354 13.69549 -5.94305 11.64993 9.36724 -7.27392 -8.56085 -20.72504 -0.82801 43.60153 9.93 62.51422 68.65391 39.57551 29.26526 -9.57934 7.29535 13.30551 -56.43311 84.36484 -73.22145 26.71503 4.71816 76.98406 1.14117 -22.59182 -80.69828 -12.15709 -1.20773 -1.42204 76.25289 3.74048 18.25822 -64.92264 -18.51116 0.37959 1.17724
-0.42843 -0.44581 0.19957 21.26048 14.02874 -5.88935 10.35651 9.06445 -6.94306 -8.17303 -19.49822 -0.82812 43.80774 9.50129 62.08095 65.63814 38.02505 27.69008 -10.0647 8.60692 13.67198 -55.91212 81.87148 -73.76217 24.74422 4.64577 76.42416 1.05977 -22.93702 -80.90373 -11.92813 -1.26184 -1.44478 75.91669 3.84903 18.29625 -65.27536 -18.37133 0.42687 1.20737
-0.42706 -0.44527 0.19897 21.13897 14.19755 -5.86104 9.27057 8.81013 -6.67518 -7.82757 -18.48617 -0.8282 43.83519 9.16349 61.42469 62.22302 36.55957 26.28791 -10.54664 10.09404 13.94792 -55.67203 78.91414 -73.39563 22.98877 4.75049 76.04675 0.99353 -23.18787 -81.09637 -11.68044 -1.31546 -1.46667 75.68866 3.97263 18.38165 -65.57566 -18.16474 0.46747 1.22876
-0.42605 -0.44441 0.19851 21.12981 13.86336 -5.89938 8.82638 8.70698 -6.60069 -7.60218 -18.12749 -0.82822 43.39058 9.11812 60.20107 57.68687 35.11994 25.34651 -11.02759 11.99256 13.95818 -56.17367 74.67124 -70.52406 21.79344 5.32599 76.22439 0.97607 -23.15493 -81.25382 -11.38158 -1.36517 -1.48487 75.77045 4.15475 18.62591 -65.71611 -17.76263 0.4826 1.22055
-0.42518 -0.44345 0.1981 21.16182 13.35949 -5.96208 8.59637 8.65394 -6.58911 -7.41804 -17.98923 -0.82822 42.76751 9.16309 58.75577 52.78016 33.77796 24.56409 -11.50389 14.0469 13.87541 -56.9502 69.98084 -66.74407 20.81163 6.08204 76.59101 0.97346 -23.02721 -81.39864 -11.06652 -1.41413 -1.50215 75.96532 4.34989 18.91602 -65.80379 -17.29571 0.49142 1.2039
-0.42425 -0.44255 0.19767 21.17436 12.9394 -6.01216 8.25868 8.57556 -6.54202 -7.21043 -17.7412 -0.82823 42.22126 9.15174 57.40163 48.10581 32.4444 23.68809 -11.97767 16.01212 13.83577 -57.60094 65.52761 -63.36119 19.73688 6.76809 76.86696 0.96101 -22.94971 -81.54994 -10.76369 -1.46377 -1.52018 76.11324 4.53002 19.17348 -65.92001 -16.86515 0.50627 1.19356
-0.42331 -0.44159 0.19724 21.19045 12.49741 -6.06957 7.95609 8.50602 -6.5223 -7.02171 -17.52651 -0.82823 41.68975 9.20105 56.08052 43.14641 30.86874 22.91576 -12.47004 18.07369 13.79518 -58.26973 60.91768 -60.01183 18.65376 7.40681 77.15641 0.96094 -22.8437 -81.69935 -10.43828 -1.51238 -1.53695 76.23939 4.74825 19.47933 -66.01944 -16.40426 0.50855 1.17328
-0.42241 -0.44074 0.19681 21.20888 12.05788 -6.11722 7.63517 8.43074 -6.46165 -6.80512 -17.29782 -0.82825 41.08752 9.14784 54.64305 38.70176 29.85871 21.95467 -12.92353 19.96058 13.73306 -58.95296 56.53947 -56.4197 17.63143 8.1826 77.46538 0.93912 -22.77407 -81.84814 -10.15751 -1.56274 -1.55607 76.43919 4.89021 19.69583 -66.13941 -15.99272 0.53485 1.17127
-0.42161 -0.44023 0.19633 21.2226 11.67207 -6.13184 7.20366 8.32734 -6.26736 -6.48581 -16.97271 -0.8283 40.3203 8.77823 52.91122 35.73058 29.98749 20.50571 -13.26173 21.37229 13.63897 -59.70524 52.83521 -52.00037 16.77559 9.32876 77.77996 0.85034 -22.82583 -82.01207 -9.99548 -1.61882 -1.5819 76.81109 4.82005 19.65503 -66.34061 -15.71951 0.63352 1.22461
-0.42085 -0.43984 0.19585 21.23735 11.29271 -6.13574 6.74886 8.21675 -6.03097 -6.14 -16.62786 -0.82837 39.491 8.30503 51.07598 33.29974 30.7404 18.85129 -13.56131 22.59237 13.52523 -60.44463 49.39544 -47.434 15.96513 10.59889 78.10914 0.73981 -22.91739 -82.17345 -9.88063 -1.67648 -1.61009 77.25419 4.6726 19.52321 -66.56191 -15.5007 0.7557 1.29608
-0.42006 -0.43938 0.19536 21.25237 10.90609 -6.1445 6.31077 8.10968 -5.81738 -5.8164 -16.29516 -0.82843 38.69895 7.88664 49.30637 30.64754 31.48483 17.23667 -13.88629 23.86819 13.41702 -61.12478 45.88403 -43.1892 15.09779 11.7899 78.43367 0.64144 -22.9922 -82.32673 -9.74997 -1.73295 -1.63722 77.66747 4.5593 19.43234 -66.76625 -15.26614 0.8641 1.35733
-0.41929 -0.43898 0.19487 21.26594 10.53215 -6.1541 5.85406 8.00307 -5.59016 -5.45088 -15.95547 -0.8285 37.8618 7.43768 47.44925 27.87715 31.12873 15.83516 -14.1836 25.28157 13.31983 -62.0859 42.1487 -37.85624 14.38413 13.08753 78.75555 0.53398 -23.059 -82.51787 -9.59517 -1.79154 -1.66438 78.07415 4.44991 19.34318 -67.00192 -14.99178 0.98534 1.42658
-0.4185 -0.43848 0.1944 21.28197 10.13525 -6.1592 5.42798 7.89337 -5.3809 -5.1664 -15.62425 -0.82855 37.10705 7.02792 45.754 25.48973 33.1397 13.96238 -14.52238 26.36145 13.1964 -62.45961 38.95238 -34.74284 13.36704 14.185 79.08492 0.4401 -23.15201 -82.63068 -9.50181 -1.8459 -1.69191 78.50977 4.31469 19.23027 -67.17764 -14.81368 1.08555 1.48366
-0.41762 -0.43763 0.19399 21.30642 9.67617 -6.15316 5.09031 7.77486 -5.22814 -5.10748 -15.30801 -0.82856 36.58889 6.74024 44.52513 24.00081 42.16053 10.63298 -15.04756 26.55999 13.00425 -61.17459 37.14975 -38.00511 11.42516 14.74393 79.42255 0.38902 -23.3184 -82.51933 -9.56879 -1.88986 -1.72122 79.00977 4.11971 19.05627 -67.18443 -14.89182 1.12148 1.5021
-0.41672 -0.43668 0.1936 21.33263 9.19404 -6.14302 4.78363 7.65359 -5.09526 -5.13189 -15.00235 -0.82856 36.15805 6.49722 43.46729 22.88633 53.43016 6.87188 -15.60566 26.42982 12.78713 -59.30539 35.88872 -43.47146 9.18944 15.08889 79.76783 0.3523 -23.50855 -82.33077 -9.69557 -1.9292 -1.7506 79.53558 3.90274 18.86444 -67.13019 -15.06458 1.13555 1.50782
-0.41584 -0.43577 0.1932 21.35678 8.72148 -6.13557 4.46281 7.5347 -4.95516 -5.12077 -14.69943 -0.82857 35.69188 6.24097 42.33324 21.61897 63.2518 3.44505 -16.10592 26.45443 12.58246 -57.72774 34.40118 -47.79508 7.13682 15.50051 80.11465 0.30892 -23.68088 -82.18329 -9.79367 -1.96955 -1.77911 80.04771 3.70059 18.69246 -67.10315 -15.19188 1.15996 1.5198
-0.41492 -0.43487 0.19278 21.38684 8.25295 -6.1245 4.14125 7.41096 -4.80586 -5.09809 -14.36411 -0.82858 35.20423 5.95165 41.17952 20.29416 74.87064 -0.56326 -16.77982 26.45066 12.37194 -56.03775 32.8381 -52.7084 4.87657 16.04178 80.44142 0.26529 -23.883 -82.01082 -9.89999 -2.01454 -1.81124 80.57042 3.47527 18.46848 -67.07901 -15.33141 1.18352 1.53037
